<?xml version="1.0" encoding="UTF-8"?>
<svg width="150px" height="150px" viewBox="0 0 150 150" version="1.1" xmlns="http://www.w3.org/2000/svg" xmlns:xlink="http://www.w3.org/1999/xlink" style="background: #000000;">
    <!-- Generator: Sketch 59.1 (86144) - https://sketch.com -->
    <title>hkict_webhost</title>
    <desc>Created with Sketch.</desc>
    <defs>
        <linearGradient x1="18.4953035%" y1="50%" x2="77.2004538%" y2="51.0424899%" id="linearGradient-1">
            <stop stop-color="#28DC8E" offset="0%"></stop>
            <stop stop-color="#0049FF" offset="100%"></stop>
        </linearGradient>
        <linearGradient x1="18.4953035%" y1="50%" x2="77.2004538%" y2="51.0424899%" id="linearGradient-2">
            <stop stop-color="#28DC8E" stop-opacity="0.391034747" offset="0%"></stop>
            <stop stop-color="#0049FF" stop-opacity="0.525185752" offset="100%"></stop>
        </linearGradient>
    </defs>
    <g id="hkict_webhost" stroke="none" stroke-width="1" fill="none" fill-rule="evenodd">
        <rect fill="#000000" x="0" y="0" width="150" height="150"></rect>
        <path d="M124,51.497 L124,105 C124,107.209139 122.209139,109 120,109 L40,109 C37.790861,109 36,107.209139 36,105 L36,51.4972258 L124,51.497 Z M120,41 C122.209139,41 124,42.790861 124,45 L124,49.9794281 L36,49.9794281 L36,45 C36,42.790861 37.790861,41 40,41 L120,41 Z M41.75,44 C40.7835017,44 40,44.7835017 40,45.75 C40,46.7164983 40.7835017,47.5 41.75,47.5 C42.7164983,47.5 43.5,46.7164983 43.5,45.75 C43.5,44.7835017 42.7164983,44 41.75,44 Z M48.25,44 C47.2835017,44 46.5,44.7835017 46.5,45.75 C46.5,46.7164983 47.2835017,47.5 48.25,47.5 C49.2164983,47.5 50,46.7164983 50,45.75 C50,44.7835017 49.2164983,44 48.25,44 Z M54.75,44 C53.7835017,44 53,44.7835017 53,45.75 C53,46.7164983 53.7835017,47.5 54.75,47.5 C55.7164983,47.5 56.5,46.7164983 56.5,45.75 C56.5,44.7835017 55.7164983,44 54.75,44 Z" id="Combined-Shape" fill="#FFFFFF"></path>
        <path d="M35,50 L43.5769134,50 L43.5769134,50 C43.5769134,51.1136639 44.4797163,52.0164668 45.5933802,52.0164668 L64.5792683,52.0164668 C65.6929322,52.0164668 66.5957351,51.1136639 66.5957351,50 L66.5957351,50 L66.5957351,50 L74,50 C75.6568542,50 77,51.3431458 77,53 L77,119 C77,120.656854 75.6568542,122 74,122 L35,122 C33.3431458,122 32,120.656854 32,119 L32,53 C32,51.3431458 33.3431458,50 35,50 Z" id="Rectangle-Copy-11" fill="#28DC8E" transform="translate(54.500000, 86.000000) rotate(-375.000000) translate(-54.500000, -86.000000) "></path>
        <rect id="Rectangle-Copy-11" fill="#0C53ED" x="51" y="78" width="75" height="46" rx="6"></rect>
        <path d="M128,61.5 C129.380712,61.5 130.5,62.6192881 130.5,64 L130.5,117 C130.5,123.903559 124.903559,129.5 118,129.5 L31,129.5 C24.0964406,129.5 18.5,123.903559 18.5,117 L18.5,64 C18.5,62.6192881 19.6192881,61.5 21,61.5 L128,61.5 Z M86.5,71.5 L60.5,71.5 C59.1192881,71.5 58,72.6192881 58,74 L58,75 C58,76.3807119 59.1192881,77.5 60.5,77.5 L86.5,77.5 C87.8807119,77.5 89,76.3807119 89,75 L89,74 C89,72.6192881 87.8807119,71.5 86.5,71.5 Z" id="Combined-Shape" stroke="url(#linearGradient-2)" fill-opacity="0.3" fill="url(#linearGradient-1)" stroke-linejoin="round"></path>
        <path d="M50.58,105.182 C52.834,105.182 54.206,103.838 54.206,102.186 C54.206,100.674 53.324,99.918 52.106,99.4 L50.692,98.798 L50.3974329,98.6785227 C49.6690796,98.3753841 49.026,98.0222353 49.026,97.244 C49.026,96.418 49.712,95.914 50.762,95.914 C51.672,95.914 52.386,96.264 53.03,96.838 L53.884,95.802 C53.1,95.004 51.966,94.5 50.762,94.5 C48.802,94.5 47.374,95.718 47.374,97.342 C47.374,98.7719091 48.3817397,99.5512521 49.3378747,99.9844382 L50.902,100.66 C51.854,101.08 52.554,101.374 52.554,102.312 C52.554,103.18 51.854,103.768 50.608,103.768 C49.614,103.768 48.606,103.292 47.864,102.55 L46.912,103.67 C47.85,104.622 49.166,105.182 50.58,105.182 Z M58.21,105.182 C58.77,105.182 59.288,105.042 59.722,104.902 L59.428,103.712 C59.204,103.81 58.868,103.894 58.602,103.894 C57.804,103.894 57.482,103.418 57.482,102.494 L57.482,98.588 L59.484,98.588 L59.484,97.3 L57.482,97.3 L57.482,95.172 L56.124,95.172 L55.942,97.3 L54.752,97.384 L54.752,98.588 L55.872,98.588 L55.872,102.48 C55.872,104.104 56.474,105.182 58.21,105.182 Z M61.164,105 L62.76,105 L62.76,100.198 C63.25,98.98 64.006,98.546 64.636,98.546 C64.944,98.546 65.14,98.588 65.406,98.672 L65.7,97.272 C65.462,97.16 65.21,97.104 64.832,97.104 C64.006,97.104 63.194,97.692 62.648,98.686 L62.606,98.686 L62.48,97.3 L61.164,97.3 L61.164,105 Z M69.816,105.182 C71.72,105.182 73.442,103.712 73.442,101.164 C73.442,98.588 71.72,97.104 69.816,97.104 C67.912,97.104 66.19,98.588 66.19,101.164 C66.19,103.712 67.912,105.182 69.816,105.182 Z M69.816,103.866 C68.612,103.866 67.856,102.788 67.856,101.164 C67.856,99.526 68.612,98.434 69.816,98.434 C71.034,98.434 71.79,99.526 71.79,101.164 C71.79,102.788 71.034,103.866 69.816,103.866 Z M76.942,105.182 C77.866,105.182 78.692,104.72 79.392,104.118 L79.434,104.118 L79.574,105 L80.89,105 L80.89,100.366 C80.89,98.322 80.008,97.104 78.09,97.104 C76.858,97.104 75.78,97.608 74.982,98.112 L75.584,99.204 C76.242,98.784 76.998,98.42 77.81,98.42 C78.944,98.42 79.266,99.204 79.28,100.1 C76.074,100.45 74.674,101.304 74.674,102.956 C74.674,104.314 75.612,105.182 76.942,105.182 Z M77.432,103.908 C76.746,103.908 76.228,103.6 76.228,102.844 C76.228,101.976 76.998,101.402 79.28,101.122 L79.28,103.012 C78.65,103.586 78.104,103.908 77.432,103.908 Z M85.804,108.458 C88.268,108.458 89.836,107.254 89.836,105.77 C89.836,104.454 88.884,103.894 87.064,103.894 L85.65,103.894 C84.67,103.894 84.362,103.6 84.362,103.138 C84.362,102.774 84.53,102.55 84.782,102.326 C85.118,102.48 85.51,102.564 85.86,102.564 C87.47,102.564 88.744,101.598 88.744,99.918 C88.744,99.33 88.534,98.812 88.24,98.504 L89.71,98.504 L89.71,97.3 L86.98,97.3 C86.686,97.188 86.294,97.104 85.86,97.104 C84.264,97.104 82.878,98.126 82.878,99.876 C82.878,100.786 83.368,101.514 83.886,101.92 L83.886,101.976 C83.466,102.284 83.032,102.802 83.032,103.404 C83.032,104.034 83.34,104.44 83.732,104.678 L83.732,104.748 C83.018,105.182 82.612,105.784 82.612,106.428 C82.612,107.772 83.956,108.458 85.804,108.458 Z M85.86,101.528 C85.062,101.528 84.404,100.898 84.404,99.876 C84.404,98.826 85.048,98.238 85.86,98.238 C86.672,98.238 87.316,98.84 87.316,99.876 C87.316,100.898 86.658,101.528 85.86,101.528 Z M86.042,107.394 C84.768,107.394 83.984,106.946 83.984,106.19 C83.984,105.798 84.18,105.406 84.642,105.07 C84.964,105.14 85.314,105.182 85.678,105.182 L86.84,105.182 C87.778,105.182 88.282,105.378 88.282,106.022 C88.282,106.736 87.386,107.394 86.042,107.394 Z M94.232,105.182 C95.24,105.182 96.122,104.846 96.836,104.37 L96.276,103.348 C95.716,103.712 95.128,103.922 94.442,103.922 C93.112,103.922 92.188,103.04 92.062,101.57 L97.06,101.57 C97.102,101.388 97.13,101.066 97.13,100.758 C97.13,98.574 96.038,97.104 93.994,97.104 C92.188,97.104 90.48,98.658 90.48,101.164 C90.48,103.698 92.146,105.182 94.232,105.182 Z M92.048,100.464 C92.202,99.106 93.056,98.364 94.022,98.364 C95.142,98.364 95.744,99.134 95.744,100.464 L92.048,100.464 Z" id="Stroage" fill="#FFFFFF" fill-rule="nonzero"></path>
    </g>
</svg>